<svg width="1280" height="720" xmlns="http://www.w3.org/2000/svg" xmlns:xlink="http://www.w3.org/1999/xlink" overflow="hidden"><g><rect x="0" y="0" width="1280" height="720" fill="#282C34"/><rect x="843.5" y="46.5001" width="372" height="502" stroke="#FFFFFF" stroke-width="1.33333" stroke-miterlimit="8" fill="#002060"/><text fill="#FFFFFF" font-family="Calibri,Calibri_MSFontService,sans-serif" font-weight="400" font-size="43" transform="translate(852.6 107)">1)</text><text fill="#FFFFFF" font-family="Calibri,Calibri_MSFontService,sans-serif" font-weight="400" font-size="43" transform="translate(906.6 107)">Update Portfolio</text><text fill="#FFFFFF" font-family="Calibri,Calibri_MSFontService,sans-serif" font-weight="400" font-size="43" transform="translate(906.6 158)">to include new</text><text fill="#FFFFFF" font-family="Calibri,Calibri_MSFontService,sans-serif" font-weight="400" font-size="43" transform="translate(906.6 209)">shares</text><text fill="#FFFFFF" font-family="Calibri,Calibri_MSFontService,sans-serif" font-weight="400" font-size="43" transform="translate(852.6 312)">2)</text><text fill="#FFFFFF" font-family="Calibri,Calibri_MSFontService,sans-serif" font-weight="400" font-size="43" transform="translate(906.6 312)">create/redeem</text><text fill="#FFFFFF" font-family="Calibri,Calibri_MSFontService,sans-serif" font-weight="400" font-size="43" transform="translate(906.6 363)">Sell Orders (10%</text><text fill="#FFFFFF" font-family="Calibri,Calibri_MSFontService,sans-serif" font-weight="400" font-size="43" transform="translate(906.6 414)">above current</text><text fill="#FFFFFF" font-family="Calibri,Calibri_MSFontService,sans-serif" font-weight="400" font-size="43" transform="translate(906.6 465)">price; 10 days to</text><text fill="#FFFFFF" font-family="Calibri,Calibri_MSFontService,sans-serif" font-weight="400" font-size="43" transform="translate(906.6 517)">expiry)</text><path d="M142.5 65.5006C142.5 55.0069 151.007 46.5001 161.501 46.5001L586.5 46.5001C596.993 46.5001 605.5 55.0069 605.5 65.5006L605.5 141.499C605.5 151.993 596.993 160.5 586.5 160.5L161.501 160.5C151.007 160.5 142.5 151.993 142.5 141.499Z" stroke="#172C51" stroke-width="1.33333" stroke-miterlimit="8" fill="#BF9000" fill-rule="evenodd"/><text fill="#FFFFFF" font-family="Calibri,Calibri_MSFontService,sans-serif" font-weight="400" font-size="43" transform="translate(256.744 92)">Actual Shares</text><text fill="#FFFFFF" font-family="Calibri,Calibri_MSFontService,sans-serif" font-weight="400" font-size="43" transform="translate(238.357 143)">Purchased/Sold</text><path d="M65.5001 278.167C65.5001 264.544 76.5439 253.5 90.1672 253.5L262.833 253.5C276.456 253.5 287.5 264.544 287.5 278.167L287.5 376.833C287.5 390.456 276.456 401.5 262.833 401.5L90.1672 401.5C76.5439 401.5 65.5001 390.456 65.5001 376.833Z" stroke="#172C51" stroke-width="1.33333" stroke-miterlimit="8" fill="#7C7C7C" fill-rule="evenodd"/><text fill="#FFFFFF" font-family="Calibri,Calibri_MSFontService,sans-serif" font-weight="400" font-size="43" transform="translate(112.38 316)">Update</text><text fill="#FFFFFF" font-family="Calibri,Calibri_MSFontService,sans-serif" font-weight="400" font-size="43" transform="translate(101.327 367)">Portfolio</text><path d="M326.5 278.167C326.5 264.544 337.544 253.5 351.167 253.5L764.833 253.5C778.456 253.5 789.5 264.544 789.5 278.167L789.5 376.833C789.5 390.456 778.456 401.5 764.833 401.5L351.167 401.5C337.544 401.5 326.5 390.456 326.5 376.833Z" stroke="#172C51" stroke-width="1.33333" stroke-miterlimit="8" fill="#7C7C7C" fill-rule="evenodd"/><text fill="#FFFFFF" font-family="Calibri,Calibri_MSFontService,sans-serif" font-weight="400" font-size="43" transform="translate(385.996 316)">Create/Redeem</text><text fill="#FFFFFF" font-family="Calibri,Calibri_MSFontService,sans-serif" font-weight="400" font-size="43" transform="translate(668.162 316)">Sell</text><text fill="#FFFFFF" font-family="Calibri,Calibri_MSFontService,sans-serif" font-weight="400" font-size="43" transform="translate(498.822 367)">Order</text><text fill="#FFFFFF" font-family="Calibri,Calibri_MSFontService,sans-serif" font-weight="400" font-size="43" transform="translate(599.176 367)">s</text><path d="M0.141865-0.301638 191.867 89.8694 191.583 90.4727-0.141865 0.301638ZM192.22 85.9837 197.757 93.0081 188.815 93.223Z" fill="#4472C4" transform="matrix(-1 0 0 1 374.257 160.5)"/><path d="M374.651 160.203 552.157 250.196 551.855 250.791 374.349 160.797ZM552.626 246.323 557.952 253.508 549.008 253.458Z" fill="#4472C4"/><text fill="#BFBFBF" font-family="Calibri,Calibri_MSFontService,sans-serif" font-weight="400" font-size="48" transform="translate(1137.37 651)">6</text><text fill="#BFBFBF" font-family="Calibri,Calibri_MSFontService,sans-serif" font-weight="400" font-size="48" transform="translate(1161.7 651)">/6</text></g></svg>