<svg width="1280" height="720" xmlns="http://www.w3.org/2000/svg" xmlns:xlink="http://www.w3.org/1999/xlink" overflow="hidden"><g><rect x="0" y="0" width="1280" height="720" fill="#282C34"/><g><path d="M122.5 612.5 672.5 612.5M122.5 541.5 672.5 541.5M122.5 470.5 672.5 470.5M122.5 399.5 672.5 399.5M122.5 328.5 672.5 328.5M122.5 257.5 672.5 257.5M122.5 186.5 672.5 186.5M122.5 115.5 672.5 115.5" stroke="#D9D9D9" stroke-linejoin="round" stroke-miterlimit="10" fill="none"/></g><g><path d="M136.5 262.5 163.5 281.5 191.5 402.5 218.5 276.5 246.5 498.5 273.5 498.5 301.5 207.5 328.5 284.5 356.5 474.5 383.5 388.5 411.5 456.5 438.5 165.5 466.5 299.5 493.5 435.5 521.5 358.5 548.5 346.5 576.5 433.5 603.5 265.5 631.5 334.5 658.5 497.5" stroke="#00B0F0" stroke-width="3" stroke-linecap="round" stroke-linejoin="round" stroke-miterlimit="10" fill="none"/></g><g><text fill="#A6A6A6" font-family="Calibri,Calibri_MSFontService,sans-serif" font-weight="400" font-size="32" transform="matrix(6.12323e-17 -1 1 6.12323e-17 109 328)">Price</text></g><g><text fill="#A6A6A6" font-family="Calibri,Calibri_MSFontService,sans-serif" font-weight="400" font-size="32" transform="translate(365.32 644)">Time</text></g><g><text fill="#A6A6A6" font-family="Calibri,Calibri_MSFontService,sans-serif" font-weight="400" font-size="27" transform="translate(167.693 92)">Trade</text></g><g><text fill="#A6A6A6" font-family="Calibri,Calibri_MSFontService,sans-serif" font-weight="400" font-size="27" transform="translate(233.867 92)">History of a Micro</text></g><g><text fill="#A6A6A6" font-family="Calibri,Calibri_MSFontService,sans-serif" font-weight="400" font-size="27" transform="translate(427.147 92)">-</text></g><g><text fill="#A6A6A6" font-family="Calibri,Calibri_MSFontService,sans-serif" font-weight="400" font-size="27" transform="translate(435.314 92)">Cap Company</text></g><path d="M256 496.5C256 486.283 264.059 478 274 478 283.941 478 292 486.283 292 496.5 292 506.717 283.941 515 274 515 264.059 515 256 506.717 256 496.5Z" stroke="#385723" stroke-width="6" stroke-miterlimit="8" fill="none" fill-rule="evenodd"/><rect x="655.5" y="560.5" width="13" height="52" stroke="#ED7D31" stroke-width="1.33333" stroke-miterlimit="8" fill="#F8CBAD"/><rect x="571.5" y="556.5" width="14" height="56" stroke="#ED7D31" stroke-width="1.33333" stroke-miterlimit="8" fill="#F8CBAD"/><rect x="487.5" y="584.5" width="14" height="28" stroke="#ED7D31" stroke-width="1.33333" stroke-miterlimit="8" fill="#F8CBAD"/><rect x="404.5" y="569.5" width="13" height="43" stroke="#ED7D31" stroke-width="1.33333" stroke-miterlimit="8" fill="#F8CBAD"/><rect x="348.5" y="512.5" width="13" height="100" stroke="#ED7D31" stroke-width="1.33333" stroke-miterlimit="8" fill="#F8CBAD"/><rect x="264.5" y="533.5" width="14" height="79" stroke="#ED7D31" stroke-width="1.33333" stroke-miterlimit="8" fill="#F8CBAD"/><rect x="236.5" y="507.5" width="14" height="105" stroke="#ED7D31" stroke-width="1.33333" stroke-miterlimit="8" fill="#F8CBAD"/><rect x="180.5" y="482.5" width="14" height="130" stroke="#ED7D31" stroke-width="1.33333" stroke-miterlimit="8" fill="#F8CBAD"/><rect x="208.5" y="455.5" width="14" height="157" stroke="#ED7D31" stroke-width="1.33333" stroke-miterlimit="8" fill="#F8CBAD"/><rect x="152.5" y="592.5" width="14" height="20" stroke="#ED7D31" stroke-width="1.33333" stroke-miterlimit="8" fill="#F8CBAD"/><rect x="124.5" y="560.5" width="14" height="52" stroke="#ED7D31" stroke-width="1.33333" stroke-miterlimit="8" fill="#F8CBAD"/><rect x="292.5" y="563.5" width="13" height="49" stroke="#ED7D31" stroke-width="1.33333" stroke-miterlimit="8" fill="#F8CBAD"/><rect x="320.5" y="573.5" width="13" height="39" stroke="#ED7D31" stroke-width="1.33333" stroke-miterlimit="8" fill="#F8CBAD"/><rect x="376.5" y="535.5" width="13" height="77" stroke="#ED7D31" stroke-width="1.33333" stroke-miterlimit="8" fill="#F8CBAD"/><rect x="431.5" y="535.5" width="14" height="77" stroke="#ED7D31" stroke-width="1.33333" stroke-miterlimit="8" fill="#F8CBAD"/><rect x="459.5" y="542.5" width="14" height="70" stroke="#ED7D31" stroke-width="1.33333" stroke-miterlimit="8" fill="#F8CBAD"/><rect x="515.5" y="459.5" width="14" height="153" stroke="#ED7D31" stroke-width="1.33333" stroke-miterlimit="8" fill="#F8CBAD"/><rect x="543.5" y="525.5" width="14" height="87" stroke="#ED7D31" stroke-width="1.33333" stroke-miterlimit="8" fill="#F8CBAD"/><rect x="599.5" y="512.5" width="14" height="100" stroke="#ED7D31" stroke-width="1.33333" stroke-miterlimit="8" fill="#F8CBAD"/><rect x="627.5" y="548.5" width="13" height="64" stroke="#ED7D31" stroke-width="1.33333" stroke-miterlimit="8" fill="#F8CBAD"/><path d="M337 471.5C337 461.283 345.059 453 355 453 364.941 453 373 461.283 373 471.5 373 481.717 364.941 490 355 490 345.059 490 337 481.717 337 471.5Z" stroke="#385723" stroke-width="6" stroke-miterlimit="8" fill="none" fill-rule="evenodd"/><path d="M390 454.5C390 444.283 398.059 436 408 436 417.941 436 426 444.283 426 454.5 426 464.717 417.941 473 408 473 398.059 473 390 464.717 390 454.5Z" stroke="#385723" stroke-width="6" stroke-miterlimit="8" fill="none" fill-rule="evenodd"/><path d="M639 493.5C639 483.283 647.059 475 657 475 666.941 475 675 483.283 675 493.5 675 503.717 666.941 512 657 512 647.059 512 639 503.717 639 493.5Z" stroke="#FFC000" stroke-width="6" stroke-miterlimit="8" fill="none" fill-rule="evenodd"/><path d="M284 213.5C284 203.283 292.059 195 302 195 311.941 195 320 203.283 320 213.5 320 223.717 311.941 232 302 232 292.059 232 284 223.717 284 213.5Z" stroke="#C00000" stroke-width="6" stroke-miterlimit="8" fill="none" fill-rule="evenodd"/><path d="M420 173.5C420 163.283 428.059 155 438 155 447.941 155 456 163.283 456 173.5 456 183.717 447.941 192 438 192 428.059 192 420 183.717 420 173.5Z" stroke="#C00000" stroke-width="6" stroke-miterlimit="8" fill="none" fill-rule="evenodd"/><path d="M235 496.5C235 486.283 243.059 478 253 478 262.941 478 271 486.283 271 496.5 271 506.717 262.941 515 253 515 243.059 515 235 506.717 235 496.5Z" stroke="#385723" stroke-width="6" stroke-miterlimit="8" fill="none" fill-rule="evenodd"/><path d="M455.96 192.6 493.918 378.536 489.999 379.336 452.04 193.4ZM497.437 375.776 493.959 388.734 485.68 378.177Z" fill="#C00000"/><text fill="#FF0000" font-family="Calibri,Calibri_MSFontService,sans-serif" font-weight="400" font-size="24" transform="translate(482.583 285)">10%</text><text fill="#FF0000" font-family="Calibri,Calibri_MSFontService,sans-serif" font-weight="400" font-size="24" transform="translate(482.583 314)">Drop</text><path d="M1.98953-0.204407 24.2289 216.255 20.2498 216.664-1.98953 0.204407ZM28.0036 213.857 23.2614 226.407 16.0664 215.083Z" fill="#385723" transform="matrix(1 0 0 -1 403 421.407)"/><text fill="#00B050" font-family="Calibri,Calibri_MSFontService,sans-serif" font-weight="400" font-size="24" transform="translate(363.001 284)">10%</text><text fill="#00B050" font-family="Calibri,Calibri_MSFontService,sans-serif" font-weight="400" font-size="24" transform="translate(364.667 313)">Rise</text><text fill="#BFBFBF" font-family="Calibri,Calibri_MSFontService,sans-serif" font-weight="400" font-size="32" transform="matrix(6.12323e-17 -1 1 6.12323e-17 104.62 607)">Volume</text><rect x="757.5" y="456.5" width="315" height="77" stroke="#FFFFFF" stroke-width="1.33333" stroke-miterlimit="8" fill="#002060"/><text fill="#FFFFFF" font-family="Calibri,Calibri_MSFontService,sans-serif" font-weight="400" font-size="32" transform="translate(766.74 505)">Buying Opportunity?</text><path d="M756.87 496.21 684.995 496.026 685.005 492.026 756.88 492.21ZM686.985 500.031 675 494 687.015 488.031Z" fill="#AFABAB"/></g></svg>