<svg width="1280" height="720" xmlns="http://www.w3.org/2000/svg" xmlns:xlink="http://www.w3.org/1999/xlink" overflow="hidden"><g><rect x="0" y="0" width="1280" height="720" fill="#282C34"/><path d="M280.5 61.6671C280.5 53.2906 287.291 46.5001 295.667 46.5001L728.333 46.5001C736.71 46.5001 743.5 53.2906 743.5 61.6671L743.5 122.333C743.5 130.71 736.71 137.5 728.333 137.5L295.667 137.5C287.291 137.5 280.5 130.71 280.5 122.333Z" stroke="#172C51" stroke-width="1.33333" stroke-miterlimit="8" fill="#385723" fill-rule="evenodd"/><text fill="#FFFFFF" font-family="Calibri,Calibri_MSFontService,sans-serif" font-weight="400" font-size="43" transform="translate(368.845 106)">Ideal # of Shares</text><path d="M280.5 200C280.5 186.469 291.469 175.5 305 175.5L719 175.5C732.531 175.5 743.5 186.469 743.5 200L743.5 298C743.5 311.531 732.531 322.5 719 322.5L305 322.5C291.469 322.5 280.5 311.531 280.5 298Z" stroke="#172C51" stroke-width="1.33333" stroke-miterlimit="8" fill="#7C7C7C" fill-rule="evenodd"/><text fill="#FFFFFF" font-family="Calibri,Calibri_MSFontService,sans-serif" font-weight="400" font-size="43" transform="translate(355.285 237)">#</text><text fill="#FFFFFF" font-family="Calibri,Calibri_MSFontService,sans-serif" font-weight="400" font-size="43" transform="translate(386.285 237)">of</text><text fill="#FFFFFF" font-family="Calibri,Calibri_MSFontService,sans-serif" font-weight="400" font-size="43" transform="translate(431.452 237)">s</text><text fill="#FFFFFF" font-family="Calibri,Calibri_MSFontService,sans-serif" font-weight="400" font-size="43" transform="translate(448.119 237)">hares</text><text fill="#FFFFFF" font-family="Calibri,Calibri_MSFontService,sans-serif" font-weight="400" font-size="43" transform="translate(552.892 237)">t</text><text fill="#FFFFFF" font-family="Calibri,Calibri_MSFontService,sans-serif" font-weight="400" font-size="43" transform="translate(567.225 237)">rade</text><text fill="#FFFFFF" font-family="Calibri,Calibri_MSFontService,sans-serif" font-weight="400" font-size="43" transform="translate(645.352 237)">d</text><text fill="#FFFFFF" font-family="Calibri,Calibri_MSFontService,sans-serif" font-weight="400" font-size="43" transform="translate(351.539 288)">(Available to steal)</text><path d="M34.5001 388.001C34.5001 373.365 46.3647 361.5 61.0005 361.5L471 361.5C485.635 361.5 497.5 373.365 497.5 388.001L497.5 494C497.5 508.635 485.635 520.5 471 520.5L61.0005 520.5C46.3647 520.5 34.5001 508.635 34.5001 494Z" stroke="#172C51" stroke-width="1.33333" stroke-miterlimit="8" fill="#7C7C7C" fill-rule="evenodd"/><text fill="#FFFFFF" font-family="Calibri,Calibri_MSFontService,sans-serif" font-weight="400" font-size="43" transform="translate(69.5509 441)"># of Shares in Portfolio</text><text fill="#FFFFFF" font-family="Calibri,Calibri_MSFontService,sans-serif" font-weight="400" font-size="24" transform="translate(88.2509 475)">(</text><text fill="#FFFFFF" font-family="Calibri,Calibri_MSFontService,sans-serif" font-weight="400" font-size="24" transform="translate(95.5842 475)">i</text><text fill="#FFFFFF" font-family="Calibri,Calibri_MSFontService,sans-serif" font-weight="400" font-size="24" transform="translate(101.084 475)">f selling, as shorting is not allowed)</text><rect x="843.5" y="46.5001" width="372" height="255" stroke="#FFFFFF" stroke-width="1.33333" stroke-miterlimit="8" fill="#002060"/><text fill="#FFFFFF" font-family="Calibri,Calibri_MSFontService,sans-serif" font-weight="400" font-size="43" transform="translate(890.843 111)">Calculate</text><text fill="#FFFFFF" font-family="Calibri,Calibri_MSFontService,sans-serif" font-weight="700" font-size="43" transform="translate(1059.16 111)">a</text><text fill="#FFFFFF" font-family="Calibri,Calibri_MSFontService,sans-serif" font-weight="700" font-size="43" transform="translate(1080.16 111)">ctual</text><path d="M1058.67 116.175 1112.67 116.175 1166.67 116.175 1166.67 119.175 1112.67 119.175 1058.67 119.175Z" fill="#FFFFFF" fill-rule="evenodd"/><text fill="#FFFFFF" font-family="Calibri,Calibri_MSFontService,sans-serif" font-weight="400" font-size="43" transform="translate(872.677 162)">shares purchased,</text><text fill="#FFFFFF" font-family="Calibri,Calibri_MSFontService,sans-serif" font-weight="400" font-size="43" transform="translate(868.21 213)">subject to liquidity</text><text fill="#FFFFFF" font-family="Calibri,Calibri_MSFontService,sans-serif" font-weight="400" font-size="43" transform="translate(933.716 265)">constraints</text><path d="M512.833 137.5 512.833 168.533 512.167 168.533 512.167 137.5ZM516.5 167.199 512.5 175.199 508.5 167.199Z" fill="#4472C4"/><path d="M0.0529393-0.329103 239.389 38.1703 239.283 38.8285-0.0529393 0.329103ZM238.655 34.3384 245.918 39.5582 237.384 42.2369Z" fill="#4472C4" transform="matrix(-1 0 0 1 512.418 322.5)"/><path d="M280.5 576.501C280.5 566.007 289.007 557.5 299.501 557.5L724.5 557.5C734.993 557.5 743.5 566.007 743.5 576.501L743.5 652.499C743.5 662.993 734.993 671.5 724.5 671.5L299.501 671.5C289.007 671.5 280.5 662.993 280.5 652.499Z" stroke="#172C51" stroke-width="1.33333" stroke-miterlimit="8" fill="#BF9000" fill-rule="evenodd"/><text fill="#FFFFFF" font-family="Calibri,Calibri_MSFontService,sans-serif" font-weight="400" font-size="43" transform="translate(394.432 603)">Actual Shares</text><text fill="#FFFFFF" font-family="Calibri,Calibri_MSFontService,sans-serif" font-weight="400" font-size="43" transform="translate(376.045 654)">Purchased/Sold</text><path d="M266.549 520.17 505.872 555.769 505.774 556.428 266.451 520.83ZM505.093 551.946 512.418 557.08 503.916 559.859Z" fill="#4472C4"/><path d="M525.5 387.001C525.5 372.365 537.365 360.5 552.001 360.5L962 360.5C976.635 360.5 988.5 372.365 988.5 387.001L988.5 493C988.5 507.635 976.635 519.5 962 519.5L552.001 519.5C537.365 519.5 525.5 507.635 525.5 493Z" stroke="#172C51" stroke-width="1.33333" stroke-miterlimit="8" fill="#7C7C7C" fill-rule="evenodd"/><text fill="#FFFFFF" font-family="Calibri,Calibri_MSFontService,sans-serif" font-weight="400" font-size="43" transform="translate(631.931 439)">Available Cash</text><text fill="#FFFFFF" font-family="Calibri,Calibri_MSFontService,sans-serif" font-weight="400" font-size="24" transform="translate(594.711 473)">(if buying, as debt is not allowed)</text><path d="M0.0512166-0.329375 238.286 36.7152 238.183 37.374-0.0512166 0.329375ZM237.532 32.8872 244.822 38.0689 236.302 40.7922Z" fill="#4472C4" transform="matrix(-1 0 0 1 757.322 519.5)"/><path d="M512.551 322.171 750.786 359.215 750.684 359.874 512.449 322.829ZM750.032 355.387 757.322 360.569 748.802 363.292Z" fill="#4472C4"/><text fill="#BFBFBF" font-family="Calibri,Calibri_MSFontService,sans-serif" font-weight="400" font-size="48" transform="translate(1137.37 651)">5/6</text></g></svg>