<svg width="1280" height="720" xmlns="http://www.w3.org/2000/svg" xmlns:xlink="http://www.w3.org/1999/xlink" overflow="hidden"><g><rect x="0" y="0" width="1280" height="720" fill="#282C34"/><g><path d="M122.5 612.5 672.5 612.5M122.5 541.5 672.5 541.5M122.5 471.5 672.5 471.5M122.5 401.5 672.5 401.5M122.5 330.5 672.5 330.5M122.5 260.5 672.5 260.5M122.5 189.5 672.5 189.5M122.5 119.5 672.5 119.5" stroke="#D9D9D9" stroke-linejoin="round" stroke-miterlimit="10" fill="none"/></g><g><path d="M136.5 265.5 163.5 284.5 191.5 404.5 218.5 278.5 246.5 498.5 273.5 499.5 301.5 210.5 328.5 287.5 356.5 475.5 383.5 389.5 411.5 458.5 438.5 168.5 466.5 301.5 493.5 437.5 521.5 360.5 548.5 348.5 576.5 435.5 603.5 268.5 631.5 336.5 658.5 498.5" stroke="#00B0F0" stroke-width="3" stroke-linecap="round" stroke-linejoin="round" stroke-miterlimit="10" fill="none"/></g><g><text fill="#A6A6A6" font-family="Calibri,Calibri_MSFontService,sans-serif" font-weight="400" font-size="32" transform="matrix(6.12323e-17 -1 1 6.12323e-17 99.6668 328)">Price</text></g><g><text fill="#A6A6A6" font-family="Calibri,Calibri_MSFontService,sans-serif" font-weight="400" font-size="32" transform="translate(365.32 644)">Time</text></g><g><text fill="#A6A6A6" font-family="Calibri,Calibri_MSFontService,sans-serif" font-weight="400" font-size="38" transform="translate(252.49 93)">Historical Trades</text></g><path d="M639 500.5C639 490.283 647.059 482 657 482 666.941 482 675 490.283 675 500.5 675 510.717 666.941 519 657 519 647.059 519 639 510.717 639 500.5Z" stroke="#C00000" stroke-width="6" stroke-miterlimit="8" fill="none" fill-rule="evenodd"/><rect x="655.5" y="560.5" width="13" height="52" stroke="#ED7D31" stroke-width="1.33333" stroke-miterlimit="8" fill="#F8CBAD"/><rect x="571.5" y="556.5" width="14" height="56" stroke="#ED7D31" stroke-width="1.33333" stroke-miterlimit="8" fill="#F8CBAD"/><rect x="487.5" y="584.5" width="14" height="28" stroke="#ED7D31" stroke-width="1.33333" stroke-miterlimit="8" fill="#F8CBAD"/><rect x="404.5" y="569.5" width="13" height="43" stroke="#ED7D31" stroke-width="1.33333" stroke-miterlimit="8" fill="#F8CBAD"/><rect x="348.5" y="512.5" width="13" height="100" stroke="#ED7D31" stroke-width="1.33333" stroke-miterlimit="8" fill="#F8CBAD"/><rect x="264.5" y="533.5" width="14" height="79" stroke="#ED7D31" stroke-width="1.33333" stroke-miterlimit="8" fill="#F8CBAD"/><rect x="236.5" y="507.5" width="14" height="105" stroke="#ED7D31" stroke-width="1.33333" stroke-miterlimit="8" fill="#F8CBAD"/><rect x="180.5" y="482.5" width="14" height="130" stroke="#ED7D31" stroke-width="1.33333" stroke-miterlimit="8" fill="#F8CBAD"/><rect x="208.5" y="455.5" width="14" height="157" stroke="#ED7D31" stroke-width="1.33333" stroke-miterlimit="8" fill="#F8CBAD"/><rect x="152.5" y="592.5" width="14" height="20" stroke="#ED7D31" stroke-width="1.33333" stroke-miterlimit="8" fill="#F8CBAD"/><rect x="124.5" y="560.5" width="14" height="52" stroke="#ED7D31" stroke-width="1.33333" stroke-miterlimit="8" fill="#F8CBAD"/><rect x="292.5" y="563.5" width="13" height="49" stroke="#ED7D31" stroke-width="1.33333" stroke-miterlimit="8" fill="#F8CBAD"/><rect x="320.5" y="573.5" width="13" height="39" stroke="#ED7D31" stroke-width="1.33333" stroke-miterlimit="8" fill="#F8CBAD"/><rect x="376.5" y="535.5" width="13" height="77" stroke="#ED7D31" stroke-width="1.33333" stroke-miterlimit="8" fill="#F8CBAD"/><rect x="431.5" y="535.5" width="14" height="77" stroke="#ED7D31" stroke-width="1.33333" stroke-miterlimit="8" fill="#F8CBAD"/><rect x="459.5" y="542.5" width="14" height="70" stroke="#ED7D31" stroke-width="1.33333" stroke-miterlimit="8" fill="#F8CBAD"/><rect x="515.5" y="459.5" width="14" height="153" stroke="#ED7D31" stroke-width="1.33333" stroke-miterlimit="8" fill="#F8CBAD"/><rect x="543.5" y="525.5" width="14" height="87" stroke="#ED7D31" stroke-width="1.33333" stroke-miterlimit="8" fill="#F8CBAD"/><rect x="599.5" y="512.5" width="14" height="100" stroke="#ED7D31" stroke-width="1.33333" stroke-miterlimit="8" fill="#F8CBAD"/><rect x="627.5" y="548.5" width="13" height="64" stroke="#ED7D31" stroke-width="1.33333" stroke-miterlimit="8" fill="#F8CBAD"/><path d="M0.422103-1.95495 349.92 73.507 349.076 77.4169-0.422103 1.95495ZM348.809 69.1748 359.272 77.5723 346.276 80.9045Z" fill="#C00000" transform="matrix(-1 0 0 1 1029.27 410)"/><rect x="843.5" y="46.5001" width="372" height="364" stroke="#FFFFFF" stroke-width="1.33333" stroke-miterlimit="8" fill="#002060"/><text fill="#FFFFFF" font-family="Calibri,Calibri_MSFontService,sans-serif" font-weight="700" font-size="43" transform="translate(881.6 102)">New Trade Made</text><path d="M881.6 106.523 957.1 106.523 1032.6 106.523 1108.1 106.523 1183.6 106.523 1183.6 109.523 1108.1 109.523 1032.6 109.523 957.1 109.523 881.6 109.523Z" fill="#FFFFFF" fill-rule="evenodd"/><text fill="#FFFFFF" font-family="Calibri,Calibri_MSFontService,sans-serif" font-weight="400" font-size="32" transform="translate(852.6 194)">1)</text><text fill="#FFFFFF" font-family="Calibri,Calibri_MSFontService,sans-serif" font-weight="400" font-size="32" transform="translate(888.6 194)">Update Market Value</text><text fill="#FFFFFF" font-family="Calibri,Calibri_MSFontService,sans-serif" font-weight="400" font-size="32" transform="translate(888.6 233)">based on new price</text><text fill="#FFFFFF" font-family="Calibri,Calibri_MSFontService,sans-serif" font-weight="400" font-size="32" transform="translate(852.6 271)">2)</text><text fill="#FFFFFF" font-family="Calibri,Calibri_MSFontService,sans-serif" font-weight="400" font-size="32" transform="translate(888.6 271)">Redeem sell orders (if</text><text fill="#FFFFFF" font-family="Calibri,Calibri_MSFontService,sans-serif" font-weight="400" font-size="32" transform="translate(888.6 310)">price went high enough</text><text fill="#FFFFFF" font-family="Calibri,Calibri_MSFontService,sans-serif" font-weight="400" font-size="32" transform="translate(888.6 348)">or</text><text fill="#FFFFFF" font-family="Calibri,Calibri_MSFontService,sans-serif" font-weight="400" font-size="32" transform="translate(923.767 348)">they</text><text fill="#FFFFFF" font-family="Calibri,Calibri_MSFontService,sans-serif" font-weight="400" font-size="32" transform="translate(988.733 348)">are more than</text><text fill="#FFFFFF" font-family="Calibri,Calibri_MSFontService,sans-serif" font-weight="400" font-size="32" transform="translate(888.6 386)">10 days old)</text><text fill="#BFBFBF" font-family="Calibri,Calibri_MSFontService,sans-serif" font-weight="400" font-size="32" transform="matrix(6.12323e-17 -1 1 6.12323e-17 104.62 607)">Volume</text><text fill="#BFBFBF" font-family="Calibri,Calibri_MSFontService,sans-serif" font-weight="400" font-size="48" transform="translate(1137.37 651)">1/6</text></g></svg>