<svg width="1280" height="720" xmlns="http://www.w3.org/2000/svg" xmlns:xlink="http://www.w3.org/1999/xlink" overflow="hidden"><g><rect x="0" y="0" width="1280" height="720" fill="#282C34"/><path d="M43.5001 74.0005C43.5001 60.4693 54.4693 49.5001 68.0005 49.5001L482 49.5001C495.531 49.5001 506.5 60.4693 506.5 74.0005L506.5 172C506.5 185.531 495.531 196.5 482 196.5L68.0005 196.5C54.4693 196.5 43.5001 185.531 43.5001 172Z" stroke="#172C51" stroke-width="1.33333" stroke-miterlimit="8" fill="#7C7C7C" fill-rule="evenodd"/><text fill="#FFFFFF" font-family="Calibri,Calibri_MSFontService,sans-serif" font-weight="400" font-size="43" transform="translate(76.7497 111)">Random Forest Model:</text><text fill="#FFFFFF" font-family="Calibri,Calibri_MSFontService,sans-serif" font-weight="400" font-size="43" transform="translate(68.4763 162)">Prediction &amp; Probability</text><path d="M46.5001 272.834C46.5001 263.813 53.8129 256.5 62.8337 256.5L493.166 256.5C502.187 256.5 509.5 263.813 509.5 272.834L509.5 338.166C509.5 347.187 502.187 354.5 493.166 354.5L62.8337 354.5C53.8129 354.5 46.5001 347.187 46.5001 338.166Z" stroke="#172C51" stroke-width="1.33333" stroke-miterlimit="8" fill="#7C7C7C" fill-rule="evenodd"/><text fill="#FFFFFF" font-family="Calibri,Calibri_MSFontService,sans-serif" font-weight="400" font-size="43" transform="translate(77.46 319)">Correlation to Portfolio</text><path d="M43.5001 431C43.5001 421.887 50.8874 414.5 60.0003 414.5L490 414.5C499.113 414.5 506.5 421.887 506.5 431L506.5 497C506.5 506.113 499.113 513.5 490 513.5L60.0003 513.5C50.8874 513.5 43.5001 506.113 43.5001 497Z" stroke="#172C51" stroke-width="1.33333" stroke-miterlimit="8" fill="#7C7C7C" fill-rule="evenodd"/><text fill="#FFFFFF" font-family="Calibri,Calibri_MSFontService,sans-serif" font-weight="400" font-size="43" transform="translate(112.203 478)">Weight in Portfolio</text><path d="M43.5001 589.834C43.5001 580.813 50.8129 573.5 59.8337 573.5L490.166 573.5C499.187 573.5 506.5 580.813 506.5 589.834L506.5 655.166C506.5 664.187 499.187 671.5 490.166 671.5L59.8337 671.5C50.8129 671.5 43.5001 664.187 43.5001 655.166Z" stroke="#172C51" stroke-width="1.33333" stroke-miterlimit="8" fill="#7C7C7C" fill-rule="evenodd"/><text fill="#FFFFFF" font-family="Calibri,Calibri_MSFontService,sans-serif" font-weight="400" font-size="43" transform="translate(184.26 636)">Total AUM</text><rect x="843.5" y="46.5001" width="372" height="255" stroke="#FFFFFF" stroke-width="1.33333" stroke-miterlimit="8" fill="#002060"/><text fill="#FFFFFF" font-family="Calibri,Calibri_MSFontService,sans-serif" font-weight="400" font-size="43" transform="translate(901.677 111)">Calculate</text><text fill="#FFFFFF" font-family="Calibri,Calibri_MSFontService,sans-serif" font-weight="700" font-size="43" transform="translate(1069.99 111)">ideal</text><path d="M1069.67 116.175 1156.67 116.175 1156.67 119.175 1069.67 119.175Z" fill="#FFFFFF" fill-rule="evenodd"/><text fill="#FFFFFF" font-family="Calibri,Calibri_MSFontService,sans-serif" font-weight="400" font-size="43" transform="translate(853.823 162)">n</text><text fill="#FFFFFF" font-family="Calibri,Calibri_MSFontService,sans-serif" font-weight="400" font-size="43" transform="translate(876.323 162)">umber of shares to</text><text fill="#FFFFFF" font-family="Calibri,Calibri_MSFontService,sans-serif" font-weight="400" font-size="43" transform="translate(894.096 213)">purchase at the</text><text fill="#FFFFFF" font-family="Calibri,Calibri_MSFontService,sans-serif" font-weight="400" font-size="43" transform="translate(923.523 265)">traded price</text><path d="M506.797 122.348 637.45 376.801 636.857 377.105 506.204 122.652ZM640.103 373.94 640.199 382.884 632.986 377.594Z" fill="#4472C4"/><path d="M509.67 305.213 635.001 379.419 634.662 379.992 509.33 305.787ZM635.722 375.584 640.568 383.102 631.646 382.468Z" fill="#4472C4"/><path d="M0.172578-0.28518 128.168 77.1717 127.822 77.742-0.172578 0.28518ZM128.925 73.3443 133.698 80.9083 124.783 80.1886Z" fill="#4472C4" transform="matrix(1 0 0 -1 506.5 464.408)"/><path d="M0.29103-0.16252 130.739 233.436 130.157 233.761-0.29103 0.16252ZM133.29 230.484 133.698 239.419 126.306 234.384Z" fill="#4472C4" transform="matrix(1 0 0 -1 506.5 622.919)"/><path d="M640.5 352.667C640.5 344.291 647.291 337.5 655.667 337.5L1088.33 337.5C1096.71 337.5 1103.5 344.291 1103.5 352.667L1103.5 413.333C1103.5 421.71 1096.71 428.5 1088.33 428.5L655.667 428.5C647.291 428.5 640.5 421.71 640.5 413.333Z" stroke="#172C51" stroke-width="1.33333" stroke-miterlimit="8" fill="#385723" fill-rule="evenodd"/><text fill="#FFFFFF" font-family="Calibri,Calibri_MSFontService,sans-serif" font-weight="400" font-size="43" transform="translate(728.729 397)">Ideal # of Shares</text><text fill="#BFBFBF" font-family="Calibri,Calibri_MSFontService,sans-serif" font-weight="400" font-size="48" transform="translate(1137.37 651)">4/6</text></g></svg>