<?xml version="1.0" encoding="UTF-8"?>
<svg width="1200pt" height="1200pt" version="1.1" viewBox="0 0 1200 1200" xmlns="http://www.w3.org/2000/svg">
 <g>
  <path d="m600 62.398c-296.4 0-537.6 241.2-537.6 537.6s241.2 537.6 537.6 537.6c296.4 0 537.6-241.2 537.6-537.6s-241.2-537.6-537.6-537.6zm0 1039.2c-276 0-501.6-225.6-501.6-501.6s225.6-501.6 501.6-501.6 501.6 225.6 501.6 501.6-225.6 501.6-501.6 501.6z"/>
  <path d="m720 801.6c-31.199-27.602-57.602-51.602-58.801-74.398 0-25.199 7.1992-26.398 21.602-27.602h2.3984c18-2.3984 67.199-7.1992 63.602-58.801-1.1992-22.801-8.3984-45.602-13.199-63.602-1.1992-4.8008-2.3984-9.6016-3.6016-13.199 1.1992 0 2.3984-1.1992 2.3984-1.1992 12-6 32.398-18 32.398-40.801 0-15.602-8.3984-32.398-15.602-51.602-6-13.199-12-27.602-13.199-37.199 0-4.8008 1.1992-22.801 3.6016-39.602 12-28.801 18-86.398-40.801-116.4-28.801-15.602-61.199-22.801-96-22.801-68.398 0-153.6 33.602-192 128.4-34.801 87.602 6 180 19.199 206.4 6 13.199 16.801 24 26.398 36 10.801 12 21.602 25.199 20.398 33.602 0 3.6016-3.6016 10.801-20.398 21.602-120 75.602-171.6 228-174 234-2.3984 7.1992 0 14.398 4.8008 19.199 4.8008 4.8008 118.8 106.8 283.2 112.8h24c150 0 235.2-55.199 238.8-57.602 7.1992-4.8008 9.6016-12 7.1992-20.398-23.996-78-77.996-127.2-122.39-166.8zm-147.6 207.6c-126-4.8008-222-73.199-252-96 14.398-36 63.602-146.4 154.8-204 22.801-14.398 34.801-30 37.199-46.801 3.6016-25.199-14.398-44.398-30-62.398-8.3984-9.6016-16.801-19.199-20.398-27.602-12-22.801-46.801-104.4-18-177.6 26.398-66 85.199-105.6 158.4-105.6 28.801 0 56.398 7.1992 79.199 19.199 44.398 24 26.398 67.199 24 73.199-1.1992 1.1992-1.1992 3.6016-1.1992 6-1.1992 12-4.8008 39.602-3.6016 50.398 1.1992 14.398 9.6016 31.199 16.801 48 6 13.199 13.199 28.801 13.199 36 0 2.3984-9.6016 7.1992-13.199 9.6016-9.6016 4.8008-22.801 12-22.801 27.602 0 7.1992 2.3984 14.398 6 28.801 4.8008 16.801 10.801 37.199 12 55.199 1.1992 9.6016 1.1992 18-31.199 20.398h-2.3984c-13.199 1.1992-55.199 4.8008-54 63.602 1.1992 37.199 32.398 66 69.602 99.602 39.602 36 85.199 76.801 108 138-28.801 15.602-109.2 49.203-230.4 44.402z"/>
  <path d="m1011.6 644.4c-8.3984-6-19.199-4.8008-25.199 3.6016-9.6016 12-22.801 21.602-37.199 25.199l-0.003906-133.2c16.801 4.8008 32.398 15.602 42 31.199 4.8008 8.3984 15.602 10.801 25.199 6 8.3984-4.8008 12-15.602 6-25.199-15.602-26.398-42-44.398-72-50.398v-39.602c0-9.6016-8.3984-18-18-18-9.6016 0-18 8.3984-18 18v39.602c-49.199 8.3984-86.398 51.602-86.398 103.2 0 51.602 37.199 94.801 86.398 103.2v43.199c0 9.6016 8.3984 18 18 18 9.6016 0 18-8.3984 18-18v-43.199c26.398-4.8008 49.199-18 66-39.602 4.8008-6 2.4023-18-4.7969-24zm-150-37.199c0-31.199 21.602-58.801 50.398-66v133.2c-28.801-9.5977-50.398-36-50.398-67.199z"/>
 </g>
</svg>
