<svg width="1280" height="720" xmlns="http://www.w3.org/2000/svg" xmlns:xlink="http://www.w3.org/1999/xlink" overflow="hidden"><g><rect x="0" y="0" width="1280" height="720" fill="#282C34"/><rect x="843.5" y="46.5001" width="372" height="368" stroke="#FFFFFF" stroke-width="1.33333" stroke-miterlimit="8" fill="#002060"/><text fill="#FFFFFF" font-family="Calibri,Calibri_MSFontService,sans-serif" font-weight="700" font-size="43" transform="translate(948.6 99)">Calculate:</text><path d="M948.6 103.907 1035.6 103.907 1122.6 103.907 1122.6 106.907 1035.6 106.907 948.6 106.907Z" fill="#FFFFFF" fill-rule="evenodd"/><text fill="#FFFFFF" font-family="Arial,Arial_MSFontService,sans-serif" font-weight="400" font-size="43" transform="translate(852.6 201)">•</text><text fill="#FFFFFF" font-family="Calibri,Calibri_MSFontService,sans-serif" font-weight="400" font-size="43" transform="translate(900.6 201)">Rolling Avg Price</text><text fill="#FFFFFF" font-family="Calibri,Calibri_MSFontService,sans-serif" font-weight="400" font-size="24" transform="translate(900.6 235)">(1d, 5d, 10d, 30d)</text><text fill="#FFFFFF" font-family="Arial,Arial_MSFontService,sans-serif" font-weight="400" font-size="43" transform="translate(852.6 281)">•</text><text fill="#FFFFFF" font-family="Calibri,Calibri_MSFontService,sans-serif" font-weight="400" font-size="43" transform="translate(900.6 281)">Rolling</text><text fill="#FFFFFF" font-family="Calibri,Calibri_MSFontService,sans-serif" font-weight="400" font-size="43" transform="translate(1027.23 281)">Vol</text><text fill="#FFFFFF" font-family="Calibri,Calibri_MSFontService,sans-serif" font-weight="400" font-size="24" transform="translate(900.6 315)">(1d,</text><text fill="#FFFFFF" font-family="Calibri,Calibri_MSFontService,sans-serif" font-weight="400" font-size="24" transform="translate(944.267 315)">5d,</text><text fill="#FFFFFF" font-family="Calibri,Calibri_MSFontService,sans-serif" font-weight="400" font-size="24" transform="translate(980.6 315)">10d,</text><text fill="#FFFFFF" font-family="Calibri,Calibri_MSFontService,sans-serif" font-weight="400" font-size="24" transform="translate(1029.1 315)">30d)</text><text fill="#FFFFFF" font-family="Arial,Arial_MSFontService,sans-serif" font-weight="400" font-size="43" transform="translate(852.6 361)">•</text><text fill="#FFFFFF" font-family="Calibri,Calibri_MSFontService,sans-serif" font-weight="400" font-size="43" transform="translate(900.6 361)">Market Cap</text><text fill="#FFFFFF" font-family="Calibri,Calibri_MSFontService,sans-serif" font-weight="400" font-size="24" transform="translate(900.6 395)">(Estimate)</text><path d="M639 500.5C639 490.283 647.059 482 657 482 666.941 482 675 490.283 675 500.5 675 510.717 666.941 519 657 519 647.059 519 639 510.717 639 500.5Z" stroke="#C00000" stroke-width="6" stroke-miterlimit="8" fill="none" fill-rule="evenodd"/><path d="M637.5 462C637.5 451.783 646.231 443.5 657 443.5 667.77 443.5 676.5 451.783 676.5 462 676.5 472.217 667.77 480.5 657 480.5 646.231 480.5 637.5 472.217 637.5 462Z" stroke="#FFFFFF" stroke-width="1.33333" stroke-miterlimit="8" fill="#002060" fill-rule="evenodd"/><text fill="#FFFFFF" font-family="Calibri,Calibri_MSFontService,sans-serif" font-weight="400" font-size="13" transform="translate(646.277 465)">$1d</text><path d="M638.5 271C638.5 260.783 647.231 252.5 658 252.5 668.77 252.5 677.5 260.783 677.5 271 677.5 281.217 668.77 289.5 658 289.5 647.231 289.5 638.5 281.217 638.5 271Z" stroke="#FFFFFF" stroke-width="1.33333" stroke-miterlimit="8" fill="#002060" fill-rule="evenodd"/><text fill="#FFFFFF" font-family="Calibri,Calibri_MSFontService,sans-serif" font-weight="400" font-size="13" transform="translate(643.754 274)">$10d</text><path d="M638.5 401C638.5 390.783 647.231 382.5 658 382.5 668.77 382.5 677.5 390.783 677.5 401 677.5 411.217 668.77 419.5 658 419.5 647.231 419.5 638.5 411.217 638.5 401Z" stroke="#FFFFFF" stroke-width="1.33333" stroke-miterlimit="8" fill="#002060" fill-rule="evenodd"/><text fill="#FFFFFF" font-family="Calibri,Calibri_MSFontService,sans-serif" font-weight="400" font-size="13" transform="translate(647.17 405)">$5d</text><path d="M637.5 312C637.5 301.783 646.231 293.5 657 293.5 667.77 293.5 676.5 301.783 676.5 312 676.5 322.217 667.77 330.5 657 330.5 646.231 330.5 637.5 322.217 637.5 312Z" stroke="#FFFFFF" stroke-width="1.33333" stroke-miterlimit="8" fill="#002060" fill-rule="evenodd"/><text fill="#FFFFFF" font-family="Calibri,Calibri_MSFontService,sans-serif" font-weight="400" font-size="13" transform="translate(642.86 315)">$30d</text><rect x="680.5" y="428.5" width="14" height="184" stroke="#172C51" stroke-width="1.33333" stroke-miterlimit="8" fill="#4472C4"/><rect x="697.5" y="453.5" width="14" height="159" stroke="#172C51" stroke-width="1.33333" stroke-miterlimit="8" fill="#4472C4"/><rect x="713.5" y="344.5" width="14" height="268" stroke="#172C51" stroke-width="1.33333" stroke-miterlimit="8" fill="#4472C4"/><rect x="730.5" y="414.5" width="13" height="198" stroke="#172C51" stroke-width="1.33333" stroke-miterlimit="8" fill="#4472C4"/><text fill="#A6A6A6" font-family="Calibri,Calibri_MSFontService,sans-serif" font-weight="400" font-size="24" transform="translate(680.859 644)">Rolling</text><text fill="#A6A6A6" font-family="Calibri,Calibri_MSFontService,sans-serif" font-weight="400" font-size="24" transform="translate(680.859 673)">Volatilit</text><text fill="#A6A6A6" font-family="Calibri,Calibri_MSFontService,sans-serif" font-weight="400" font-size="24" transform="translate(755.466 673)">y</text><rect x="783.5" y="274.5" width="14" height="338" stroke="#172C51" stroke-width="1.33333" stroke-miterlimit="8" fill="#FFE699"/><text fill="#A6A6A6" font-family="Calibri,Calibri_MSFontService,sans-serif" font-weight="400" font-size="24" transform="translate(784.393 644)">Market</text><text fill="#A6A6A6" font-family="Calibri,Calibri_MSFontService,sans-serif" font-weight="400" font-size="24" transform="translate(784.393 673)">Cap</text><rect x="655.5" y="560.5" width="13" height="52" stroke="#ED7D31" stroke-width="1.33333" stroke-miterlimit="8" fill="#F8CBAD"/><rect x="571.5" y="556.5" width="14" height="56" stroke="#ED7D31" stroke-width="1.33333" stroke-miterlimit="8" fill="#F8CBAD"/><rect x="487.5" y="584.5" width="14" height="28" stroke="#ED7D31" stroke-width="1.33333" stroke-miterlimit="8" fill="#F8CBAD"/><rect x="404.5" y="569.5" width="13" height="43" stroke="#ED7D31" stroke-width="1.33333" stroke-miterlimit="8" fill="#F8CBAD"/><rect x="348.5" y="512.5" width="13" height="100" stroke="#ED7D31" stroke-width="1.33333" stroke-miterlimit="8" fill="#F8CBAD"/><rect x="264.5" y="533.5" width="14" height="79" stroke="#ED7D31" stroke-width="1.33333" stroke-miterlimit="8" fill="#F8CBAD"/><rect x="236.5" y="507.5" width="14" height="105" stroke="#ED7D31" stroke-width="1.33333" stroke-miterlimit="8" fill="#F8CBAD"/><rect x="180.5" y="482.5" width="14" height="130" stroke="#ED7D31" stroke-width="1.33333" stroke-miterlimit="8" fill="#F8CBAD"/><rect x="208.5" y="455.5" width="14" height="157" stroke="#ED7D31" stroke-width="1.33333" stroke-miterlimit="8" fill="#F8CBAD"/><rect x="152.5" y="592.5" width="14" height="20" stroke="#ED7D31" stroke-width="1.33333" stroke-miterlimit="8" fill="#F8CBAD"/><rect x="124.5" y="560.5" width="14" height="52" stroke="#ED7D31" stroke-width="1.33333" stroke-miterlimit="8" fill="#F8CBAD"/><rect x="292.5" y="563.5" width="13" height="49" stroke="#ED7D31" stroke-width="1.33333" stroke-miterlimit="8" fill="#F8CBAD"/><rect x="320.5" y="573.5" width="13" height="39" stroke="#ED7D31" stroke-width="1.33333" stroke-miterlimit="8" fill="#F8CBAD"/><rect x="376.5" y="535.5" width="13" height="77" stroke="#ED7D31" stroke-width="1.33333" stroke-miterlimit="8" fill="#F8CBAD"/><rect x="431.5" y="535.5" width="14" height="77" stroke="#ED7D31" stroke-width="1.33333" stroke-miterlimit="8" fill="#F8CBAD"/><rect x="459.5" y="542.5" width="14" height="70" stroke="#ED7D31" stroke-width="1.33333" stroke-miterlimit="8" fill="#F8CBAD"/><rect x="515.5" y="459.5" width="14" height="153" stroke="#ED7D31" stroke-width="1.33333" stroke-miterlimit="8" fill="#F8CBAD"/><rect x="543.5" y="525.5" width="14" height="87" stroke="#ED7D31" stroke-width="1.33333" stroke-miterlimit="8" fill="#F8CBAD"/><rect x="599.5" y="512.5" width="14" height="100" stroke="#ED7D31" stroke-width="1.33333" stroke-miterlimit="8" fill="#F8CBAD"/><rect x="627.5" y="548.5" width="13" height="64" stroke="#ED7D31" stroke-width="1.33333" stroke-miterlimit="8" fill="#F8CBAD"/><text fill="#A6A6A6" font-family="Calibri,Calibri_MSFontService,sans-serif" font-weight="400" font-size="24" transform="translate(622.59 177)">Rolling</text><text fill="#A6A6A6" font-family="Calibri,Calibri_MSFontService,sans-serif" font-weight="400" font-size="24" transform="translate(637.81 206)">Avg</text><text fill="#A6A6A6" font-family="Calibri,Calibri_MSFontService,sans-serif" font-weight="400" font-size="24" transform="translate(631.257 235)">Price</text><g><path d="M122.5 612.5 672.5 612.5M122.5 541.5 672.5 541.5M122.5 471.5 672.5 471.5M122.5 401.5 672.5 401.5M122.5 330.5 672.5 330.5M122.5 260.5 672.5 260.5M122.5 189.5 672.5 189.5M122.5 119.5 672.5 119.5" stroke="#D9D9D9" stroke-linejoin="round" stroke-miterlimit="10" fill="none"/></g><g><path d="M136.5 265.5 163.5 284.5 191.5 404.5 218.5 278.5 246.5 498.5 273.5 499.5 301.5 210.5 328.5 287.5 356.5 475.5 383.5 389.5 411.5 458.5 438.5 168.5 466.5 301.5 493.5 437.5 521.5 360.5 548.5 348.5 576.5 435.5 603.5 268.5 631.5 336.5 658.5 498.5" stroke="#00B0F0" stroke-width="3" stroke-linecap="round" stroke-linejoin="round" stroke-miterlimit="10" fill="none"/></g><g><text fill="#A6A6A6" font-family="Calibri,Calibri_MSFontService,sans-serif" font-weight="400" font-size="32" transform="matrix(6.12323e-17 -1 1 6.12323e-17 99.6668 328)">Price</text></g><g><text fill="#A6A6A6" font-family="Calibri,Calibri_MSFontService,sans-serif" font-weight="400" font-size="32" transform="translate(365.32 644)">Time</text></g><g><text fill="#A6A6A6" font-family="Calibri,Calibri_MSFontService,sans-serif" font-weight="400" font-size="38" transform="translate(252.49 93)">Historical Trades</text></g><text fill="#BFBFBF" font-family="Calibri,Calibri_MSFontService,sans-serif" font-weight="400" font-size="32" transform="matrix(6.12323e-17 -1 1 6.12323e-17 104.62 607)">Volume</text><text fill="#BFBFBF" font-family="Calibri,Calibri_MSFontService,sans-serif" font-weight="400" font-size="48" transform="translate(1137.37 651)">2</text><text fill="#BFBFBF" font-family="Calibri,Calibri_MSFontService,sans-serif" font-weight="400" font-size="48" transform="translate(1161.7 651)">/6</text></g></svg>